<?xml version="1.0" encoding="UTF-8"?>
<svg xmlns="http://www.w3.org/2000/svg" version="1.1" viewBox="0 0 85.04 85.04">
  <defs>
    <style>
      .cls-1 {
        fill: #fff;
      }
    </style>
  </defs>
  <!-- Generator: Adobe Illustrator 28.6.0, SVG Export Plug-In . SVG Version: 1.2.0 Build 709)  -->
  <g>
    <g id="Layer_1">
      <g id="Layer_1-2" data-name="Layer_1">
        <g id="Layer_1-2">
          <g id="Layer_1-2-2" data-name="Layer_1-2">
            <path class="cls-1" d="M68.03,13h-4.5v-1.67c0-2.21-1.79-4-4-4s-4,1.79-4,4v1.67h-9.01v-1.67c0-2.21-1.79-4-4-4s-4,1.79-4,4v1.67h-9.01v-1.67c0-2.21-1.79-4-4-4s-4,1.79-4,4v1.67h-4.5c-5.33,0-9.67,4.34-9.67,9.67v45.35c0,5.33,4.34,9.67,9.67,9.67h51.02c5.33,0,9.67-4.34,9.67-9.67V22.67c0-5.33-4.34-9.67-9.67-9.67ZM17,21h4.5v1.67c0,2.21,1.79,4,4,4s4-1.79,4-4v-1.67h9.01v1.67c0,2.21,1.79,4,4,4s4-1.79,4-4v-1.67h9.01v1.67c0,2.21,1.79,4,4,4s4-1.79,4-4v-1.67h4.5c.9,0,1.67.76,1.67,1.67v10.17H15.33v-10.17c0-.9.76-1.67,1.67-1.67ZM68.03,69.7H17.01c-.9,0-1.67-.76-1.67-1.67v-27.18h54.36v27.18c0,.9-.76,1.67-1.67,1.67Z"/>
          </g>
        </g>
      </g>
    </g>
  </g>
</svg>