<?xml version="1.0" encoding="UTF-8"?>
<svg xmlns="http://www.w3.org/2000/svg" version="1.1" viewBox="0 0 85 85">
  <defs>
    <style>
      .cls-1 {
        fill: #999;
      }
    </style>
  </defs>
  <!-- Generator: Adobe Illustrator 28.6.0, SVG Export Plug-In . SVG Version: 1.2.0 Build 709)  -->
  <g>
    <g id="Layer_1">
      <path class="cls-1" d="M42.5,78.7c-20,0-36.2-16.2-36.2-36.2S22.6,6.3,42.5,6.3s36.2,16.2,36.2,36.2-16.2,36.2-36.2,36.2ZM42.5,7.8C23.4,7.8,7.8,23.4,7.8,42.5s15.6,34.7,34.7,34.7,34.7-15.6,34.7-34.7S61.6,7.8,42.5,7.8Z"/>
      <g>
        <path class="cls-1" d="M42.5,26.6c5.2,0,5.8,0,7.9.1,1.9,0,2.9.4,3.6.7.9.4,1.6.8,2.2,1.5.7.7,1.1,1.3,1.5,2.2.3.7.6,1.7.7,3.6,0,2,.1,2.7.1,7.9s0,5.8-.1,7.9c0,1.9-.4,2.9-.7,3.6-.4.9-.8,1.6-1.5,2.2-.7.7-1.3,1.1-2.2,1.5-.7.3-1.7.6-3.6.7-2,0-2.7.1-7.9.1s-5.8,0-7.9-.1c-1.9,0-2.9-.4-3.6-.7-.9-.4-1.6-.8-2.2-1.5-.7-.7-1.1-1.3-1.5-2.2-.3-.7-.6-1.7-.7-3.6,0-2-.1-2.7-.1-7.9s0-5.8.1-7.9c0-1.9.4-2.9.7-3.6.4-.9.8-1.6,1.5-2.2.7-.7,1.3-1.1,2.2-1.5.7-.3,1.7-.6,3.6-.7,2,0,2.7-.1,7.9-.1M42.5,23.1c-5.3,0-5.9,0-8,.1-2.1,0-3.5.4-4.7.9-1.3.5-2.4,1.2-3.4,2.2-1.1,1.1-1.7,2.2-2.2,3.4-.5,1.2-.8,2.6-.9,4.7,0,2.1-.1,2.7-.1,8s0,5.9.1,8c0,2.1.4,3.5.9,4.7.5,1.3,1.2,2.4,2.2,3.4,1.1,1.1,2.2,1.7,3.4,2.2,1.2.5,2.6.8,4.7.9,2.1,0,2.7.1,8,.1s5.9,0,8-.1c2.1,0,3.5-.4,4.7-.9,1.3-.5,2.4-1.2,3.4-2.2s1.7-2.2,2.2-3.4c.5-1.2.8-2.6.9-4.7,0-2.1.1-2.7.1-8s0-5.9-.1-8c0-2.1-.4-3.5-.9-4.7-.5-1.3-1.2-2.4-2.2-3.4s-2.2-1.7-3.4-2.2c-1.2-.5-2.6-.8-4.7-.9-2.1,0-2.7-.1-8-.1"/>
        <path class="cls-1" d="M42.5,32.5c-5.5,0-10,4.5-10,10s4.5,10,10,10,10-4.5,10-10-4.5-10-10-10M42.5,49c-3.6,0-6.5-2.9-6.5-6.5s2.9-6.5,6.5-6.5,6.5,2.9,6.5,6.5-2.9,6.5-6.5,6.5"/>
        <path class="cls-1" d="M55.2,32.1c0,1.3-1,2.3-2.3,2.3s-2.3-1-2.3-2.3,1-2.3,2.3-2.3,2.3,1,2.3,2.3"/>
      </g>
    </g>
  </g>
</svg>