<?xml version="1.0" encoding="UTF-8"?>
<svg xmlns="http://www.w3.org/2000/svg" version="1.1" viewBox="0 0 85.04 85.04">
  <defs>
    <style>
      .cls-1 {
        fill: #fff;
      }
    </style>
  </defs>
  <!-- Generator: Adobe Illustrator 28.6.0, SVG Export Plug-In . SVG Version: 1.2.0 Build 709)  -->
  <g>
    <g id="Layer_1">
      <g id="Layer_1-2" data-name="Layer_1">
        <g id="Layer_1-2">
          <g id="Layer_1-2-2" data-name="Layer_1-2">
            <g>
              <path class="cls-1" d="M42.52,7.34C23.12,7.34,7.34,23.12,7.34,42.52s15.78,35.18,35.18,35.18,35.18-15.78,35.18-35.18S61.92,7.34,42.52,7.34ZM42.52,69.7c-14.99,0-27.18-12.19-27.18-27.18s12.19-27.18,27.18-27.18,27.18,12.19,27.18,27.18-12.19,27.18-27.18,27.18Z"/>
              <path class="cls-1" d="M59.25,47.56l-12.73-7.35v-14.7c0-2.21-1.79-4-4-4s-4,1.79-4,4v17.01s.01.09.01.13c0,.15.02.29.04.43.02.12.03.24.06.36.03.13.07.25.12.37.04.12.08.25.14.36.05.12.12.23.18.34.06.11.12.22.2.32.08.11.16.2.25.3.08.1.17.19.26.28.09.08.19.16.29.24.11.09.22.17.35.25.04.02.07.06.11.08l14.73,8.5c.63.36,1.32.54,2,.54,1.38,0,2.73-.72,3.47-2,1.1-1.91.45-4.36-1.46-5.46h-.02Z"/>
            </g>
          </g>
        </g>
      </g>
    </g>
  </g>
</svg>