<?xml version="1.0" encoding="UTF-8"?>
<svg xmlns="http://www.w3.org/2000/svg" version="1.1" viewBox="0 0 85.04 85.04">
  <defs>
    <style>
      .cls-1 {
        fill: #fff;
      }
    </style>
  </defs>
  <!-- Generator: Adobe Illustrator 28.6.0, SVG Export Plug-In . SVG Version: 1.2.0 Build 709)  -->
  <g>
    <g id="Layer_1">
      <g id="Layer_1-2" data-name="Layer_1">
        <g id="Layer_1-2">
          <g>
            <path class="cls-1" d="M42.52,7.34c-12.37,0-22.42,10.06-22.42,22.43,0,10.88,16.98,42.31,18.91,45.85.7,1.28,2.05,2.08,3.51,2.08s2.81-.8,3.51-2.08c1.94-3.55,18.91-34.97,18.91-45.85,0-12.37-10.06-22.43-22.43-22.43h0ZM42.52,65.16c-6.61-12.8-14.42-29.78-14.42-35.4,0-7.95,6.47-14.43,14.42-14.43s14.43,6.47,14.43,14.43c0,5.62-7.82,22.59-14.43,35.4Z"/>
            <circle class="cls-1" cx="42.52" cy="29.76" r="5.67"/>
          </g>
        </g>
      </g>
    </g>
  </g>
</svg>